<?xml version="1.0" standalone="no"?>
<!DOCTYPE svg PUBLIC "-//W3C//DTD SVG 20010904//EN"
 "http://www.w3.org/TR/2001/REC-SVG-20010904/DTD/svg10.dtd">
<svg version="1.0" xmlns="http://www.w3.org/2000/svg"
 width="1107.000000pt" height="1107.000000pt" viewBox="0 0 1107.000000 1107.000000"
 preserveAspectRatio="xMidYMid meet">

<g transform="translate(0.000000,1107.000000) scale(0.100000,-0.100000)"
fill="#000000" stroke="none">
<path d="M8819 8746 c-2 -2 -60 -12 -129 -21 -121 -15 -197 -27 -650 -99 -118
-19 -332 -53 -475 -76 -143 -22 -285 -45 -315 -51 -30 -5 -90 -14 -134 -19
-43 -6 -83 -13 -87 -16 -5 -3 -44 -9 -87 -14 -42 -5 -102 -13 -132 -19 -52 -9
-127 -22 -350 -57 -52 -8 -132 -21 -176 -29 -45 -8 -93 -15 -108 -15 -14 0
-61 -7 -103 -15 -43 -8 -139 -24 -213 -35 -156 -24 -267 -42 -660 -105 -157
-25 -330 -52 -385 -61 -55 -8 -136 -21 -180 -29 -126 -23 -214 -36 -292 -45
-40 -5 -87 -13 -105 -18 -18 -6 -67 -13 -108 -16 -41 -4 -201 -27 -355 -52
-437 -70 -623 -99 -695 -110 -19 -2 -55 -9 -80 -14 -25 -5 -92 -16 -150 -25
-58 -8 -132 -20 -165 -25 -33 -6 -95 -15 -137 -20 -42 -6 -88 -14 -103 -20
-14 -5 -42 -10 -62 -10 -19 0 -76 -7 -127 -15 -50 -9 -131 -22 -181 -30 -49
-8 -130 -21 -180 -30 -49 -8 -135 -21 -190 -30 -55 -8 -212 -33 -350 -55 -137
-22 -308 -49 -380 -60 -71 -11 -152 -24 -180 -29 -27 -6 -99 -17 -160 -26
-113 -16 -230 -35 -371 -60 -45 -8 -97 -15 -116 -15 -19 0 -58 -7 -87 -16
l-52 -15 7 -222 c7 -248 4 -235 114 -512 28 -71 58 -150 67 -175 8 -25 19 -49
24 -55 5 -5 9 -16 9 -23 0 -8 23 -74 51 -146 28 -72 57 -148 65 -168 29 -77
47 -124 65 -165 11 -24 19 -49 19 -56 0 -7 4 -17 9 -22 4 -6 25 -57 46 -115
52 -147 104 -282 115 -302 6 -10 10 -23 10 -29 0 -6 6 -25 14 -42 14 -30 48
-118 117 -302 16 -44 37 -95 45 -113 7 -18 14 -37 14 -43 0 -6 6 -25 14 -42 7
-18 21 -52 31 -77 9 -25 25 -65 35 -90 10 -25 35 -90 56 -145 21 -55 41 -104
46 -110 4 -5 8 -18 8 -30 0 -12 4 -25 8 -30 5 -6 26 -55 46 -110 21 -55 60
-156 86 -225 26 -69 64 -168 84 -220 20 -52 41 -103 46 -112 6 -10 10 -23 10
-29 0 -6 6 -25 14 -42 8 -18 26 -66 41 -107 15 -41 36 -97 47 -125 37 -96 46
-121 70 -188 33 -91 36 -94 100 -78 76 17 160 42 181 53 10 5 37 13 60 18 23
5 65 16 92 24 233 70 333 96 348 92 14 -3 18 0 14 12 -11 34 -38 108 -46 127
-27 59 -30 83 -13 98 9 8 33 17 52 20 19 2 49 9 65 15 86 29 103 35 135 42 19
4 49 13 65 19 17 6 55 17 85 26 30 8 125 35 211 60 86 25 159 45 163 45 9 0
96 -182 96 -200 0 -7 6 -10 13 -7 6 2 37 12 67 22 30 10 64 22 75 26 46 20
204 69 219 69 9 0 16 5 16 11 0 10 -25 68 -60 143 -22 45 -15 61 28 69 15 3
50 12 77 20 100 31 231 69 270 79 22 5 49 14 60 19 11 5 38 13 60 18 76 19
144 40 164 50 11 6 31 11 44 11 14 0 38 7 53 15 16 8 40 15 54 15 14 0 34 7
44 15 11 8 34 15 50 15 17 0 40 7 50 15 11 8 31 15 45 15 22 0 33 -12 68 -78
23 -42 46 -83 51 -90 7 -10 22 -9 73 6 35 11 93 27 129 36 36 10 79 22 96 27
17 5 38 9 47 9 19 0 17 7 -29 107 -19 39 -34 77 -34 85 0 8 38 24 103 42 56
15 111 32 122 37 11 5 38 13 60 18 37 9 79 21 195 57 25 7 65 19 90 25 25 6
60 18 78 25 18 8 41 14 51 14 10 0 62 13 117 30 54 16 104 30 109 30 11 -1 65
-75 65 -90 0 -6 4 -10 9 -10 5 0 14 -13 21 -30 7 -16 17 -30 22 -30 19 0 104
22 121 31 10 5 37 14 60 18 23 5 57 15 75 22 40 17 57 8 89 -47 22 -37 23 -46
18 -154 -3 -63 -12 -140 -20 -170 -18 -69 -19 -114 -1 -129 8 -7 31 -9 60 -5
38 6 46 4 46 -9 0 -21 -25 -87 -55 -148 -31 -63 -39 -103 -25 -129 10 -18 18
-21 43 -16 17 3 41 13 53 21 28 18 115 150 180 272 53 102 56 104 206 148 47
14 62 24 84 58 15 23 55 77 88 122 34 44 69 93 79 108 19 29 42 59 65 82 6 8
12 20 12 29 0 8 6 19 14 23 8 4 17 22 20 38 6 26 5 27 -3 8 -8 -18 -19 -23
-46 -23 -19 0 -54 -9 -78 -19 -23 -11 -63 -22 -89 -26 -25 -3 -48 -12 -51 -19
-3 -7 -29 -16 -58 -19 -29 -4 -55 -11 -58 -16 -3 -5 -30 -12 -59 -16 -28 -4
-55 -13 -60 -19 -7 -13 -48 -21 -142 -31 -24 -2 -46 -9 -48 -14 -2 -6 -10 -11
-18 -11 -8 0 -28 -14 -44 -31 l-28 -32 -21 44 c-12 23 -21 48 -21 55 0 7 -6
17 -14 21 -14 8 -58 79 -114 185 l-30 57 39 15 c22 9 49 16 62 16 12 0 31 7
41 15 11 8 32 15 46 15 14 0 35 7 46 15 10 8 35 15 54 15 19 0 46 7 60 15 14
8 37 14 51 15 14 0 34 7 45 15 10 8 35 15 55 15 20 0 42 7 49 15 7 8 24 15 39
15 23 0 63 11 156 42 17 5 48 14 70 19 38 10 40 9 72 -28 18 -21 33 -42 33
-48 0 -5 11 -23 24 -39 19 -23 29 -28 52 -23 50 10 118 29 137 39 10 5 40 12
67 15 l49 6 26 -56 c34 -76 32 -119 -15 -258 -55 -165 -53 -189 21 -189 60 0
59 -15 -1 -115 -16 -27 -34 -60 -39 -72 -5 -11 -15 -24 -20 -28 -18 -10 -12
-51 9 -70 24 -22 85 -15 107 12 26 34 118 179 207 327 23 39 25 40 122 71 79
25 100 40 164 121 73 92 101 127 142 175 27 30 48 59 48 62 0 4 14 21 30 39
17 17 30 36 30 42 0 6 3 22 5 36 5 24 5 24 -4 3 -6 -13 -15 -23 -21 -23 -5 0
-10 10 -10 23 0 20 -2 19 -21 -10 -15 -24 -29 -33 -47 -33 -33 0 -57 -14 -48
-28 3 -6 -24 -11 -71 -14 -62 -4 -79 -9 -92 -26 -11 -15 -32 -23 -71 -27 -67
-8 -208 -52 -227 -71 -8 -8 -23 -14 -33 -14 -10 0 -22 -4 -25 -10 -11 -18 -25
-11 -26 13 l-1 22 -6 -22 c-9 -30 -26 -17 -41 29 -7 21 -18 41 -24 45 -13 9
-57 69 -57 78 0 3 -16 31 -35 61 -19 30 -35 59 -35 64 0 6 -4 10 -10 10 -5 0
-10 5 -10 10 0 6 11 10 24 10 14 0 27 4 30 9 4 5 25 12 48 16 24 4 53 14 65
22 12 8 28 13 35 11 7 -3 45 6 83 20 68 24 101 33 235 67 36 9 69 20 74 25 6
6 21 10 35 10 15 0 37 6 51 13 15 8 42 16 62 20 33 5 40 2 72 -33 20 -22 36
-42 36 -45 0 -3 9 -14 20 -25 22 -22 32 -21 180 19 41 12 80 19 87 16 21 -7
53 -82 53 -123 0 -34 -44 -180 -69 -230 -23 -45 -41 -94 -41 -110 1 -25 22
-48 52 -55 27 -7 27 -7 12 -44 -15 -34 -42 -82 -54 -93 -9 -9 -30 -44 -41 -70
-12 -29 -5 -66 15 -73 16 -7 96 12 96 23 0 4 22 36 48 71 27 35 81 112 120
170 39 59 80 110 89 114 10 4 51 15 92 26 44 11 82 28 95 41 51 53 97 118 91
127 -3 6 0 9 7 6 7 -2 24 11 38 31 14 19 30 41 36 47 24 27 84 117 84 127 0 5
6 10 14 10 11 0 26 20 26 34 0 1 -17 2 -39 3 -27 1 -45 -4 -62 -20 -13 -12
-24 -17 -26 -10 -4 11 -34 6 -98 -15 -67 -23 -130 -33 -133 -23 -2 6 -10 11
-18 11 -20 0 -17 -38 4 -43 9 -2 -11 -2 -45 1 -43 3 -63 1 -63 -7 0 -6 6 -11
13 -11 25 0 -18 -20 -45 -20 -15 0 -30 -4 -33 -10 -3 -5 -13 -10 -22 -10 -9 0
-22 -8 -29 -17 -12 -16 -13 -14 -14 20 0 20 -4 37 -8 37 -4 0 -6 -16 -4 -35 5
-44 -14 -46 -23 -2 -4 17 -13 39 -20 47 -36 42 -135 193 -135 205 0 8 -8 19
-17 24 -15 8 -11 10 18 11 21 0 42 7 50 16 7 8 21 13 30 11 10 -3 28 2 40 11
12 8 41 16 64 16 24 1 41 4 39 7 -2 4 9 9 24 12 69 14 122 31 122 40 0 5 15 6
36 2 27 -5 34 -3 29 6 -6 9 3 10 36 6 31 -5 51 -2 69 9 l25 15 -33 -4 c-23 -3
-30 -1 -22 7 6 6 45 12 88 14 42 2 81 8 86 12 5 5 31 -15 60 -46 l51 -55 50
10 c46 9 113 14 141 12 17 -1 64 -106 64 -142 0 -17 -28 -86 -65 -160 -36 -71
-65 -141 -65 -155 0 -17 9 -30 30 -42 16 -9 30 -23 30 -31 0 -7 -32 -58 -71
-113 -82 -115 -85 -140 -16 -133 35 3 49 12 97 63 93 99 110 120 110 130 0 6
4 12 9 14 5 2 37 38 72 81 55 66 73 82 124 103 33 13 66 24 73 24 16 0 76 59
117 114 16 22 48 60 72 85 24 24 43 53 43 62 0 12 5 16 15 13 20 -8 19 10 -1
30 -8 9 -11 16 -5 16 5 0 12 -4 16 -9 6 -11 55 34 55 50 0 5 11 21 25 35 l24
24 -27 -7 c-15 -3 -41 -12 -59 -20 -18 -7 -43 -14 -55 -14 -17 -1 -18 -2 -5
-6 37 -10 14 -23 -40 -23 -37 0 -93 -11 -152 -30 -51 -17 -104 -30 -117 -30
-13 0 -24 -4 -24 -10 0 -5 -24 -10 -54 -10 -50 0 -55 -2 -64 -27 l-10 -28 -1
35 c-1 19 -9 47 -19 61 -27 42 -85 124 -91 129 -3 3 -12 16 -20 30 -8 14 -21
36 -30 49 -14 22 -14 23 6 17 26 -8 53 2 53 20 0 8 10 14 22 14 21 0 21 0 2
-15 -18 -14 -18 -14 8 -15 27 0 51 19 26 21 -22 1 26 18 54 18 15 1 33 8 42
16 8 8 19 15 25 15 6 0 11 4 11 8 0 4 38 7 84 6 76 -1 85 1 89 18 5 16 11 19
34 14 15 -3 35 -2 43 4 11 7 7 10 -18 10 -20 0 -31 4 -27 10 8 13 62 13 70 1
7 -13 63 7 87 31 10 10 23 18 28 18 6 0 36 -25 67 -56 47 -46 61 -55 82 -50
74 17 121 18 137 5 20 -16 54 -93 54 -120 0 -11 -34 -84 -75 -163 -41 -79 -75
-151 -75 -160 0 -20 33 -37 68 -34 23 3 27 0 25 -20 -2 -12 -12 -33 -24 -45
-12 -12 -33 -37 -47 -56 -25 -32 -25 -34 -7 -47 21 -16 48 -13 102 12 35 16
83 58 83 73 0 3 12 20 26 36 14 17 33 42 42 58 9 15 20 27 24 27 4 0 15 17 23
37 15 34 14 40 -2 70 -10 18 -21 33 -25 33 -5 0 -8 6 -8 14 0 22 -29 41 -42
28 -22 -22 -48 -14 -48 13 0 14 4 25 10 25 5 0 17 17 26 38 18 42 15 143 -4
150 -7 2 -12 10 -12 17 0 7 -4 15 -8 17 -12 5 -108 130 -115 150 -5 13 0 19
18 24 14 3 32 4 40 1 8 -4 17 -2 20 3 4 6 1 10 -4 10 -6 0 -11 5 -11 10 0 7 6
7 19 0 30 -16 64 -13 57 5 -4 11 2 15 24 15 17 0 30 3 30 8 0 4 28 7 61 8 49
0 65 4 76 20 11 13 17 15 20 7 3 -7 13 -13 23 -13 13 0 17 5 13 20 -9 32 13
23 69 -30 93 -88 100 -83 294 181 10 14 39 52 63 83 l43 56 -78 93 c-43 50
-81 94 -84 97 -7 6 -210 232 -257 286 -10 12 -43 50 -74 85 -31 35 -105 120
-165 189 -60 69 -111 127 -114 130 -3 3 -41 46 -85 95 -43 50 -93 106 -111
125 -36 41 -245 281 -384 443 -19 23 -42 48 -50 57 -8 8 -40 44 -70 80 -30 35
-65 73 -76 84 -12 12 -57 62 -100 111 -43 50 -81 92 -84 95 -3 3 -40 46 -82
95 -42 50 -90 105 -107 123 -17 18 -31 37 -31 42 0 4 -4 10 -8 12 -5 2 -30 28
-57 58 -171 196 -205 227 -226 206z m-996 -909 c9 -23 17 -49 17 -57 0 -9 6
-25 14 -36 8 -11 17 -37 21 -57 4 -21 11 -40 16 -43 5 -3 9 -13 9 -23 0 -14
-13 -21 -57 -30 -32 -6 -76 -16 -98 -21 -22 -4 -65 -13 -95 -20 -46 -9 -57
-16 -70 -42 -22 -43 -33 -40 -47 12 -13 52 -30 101 -49 148 -18 43 -18 96 1
112 8 7 15 19 15 27 0 20 61 43 117 43 26 1 62 7 78 15 17 7 48 14 70 14 38 1
41 -1 58 -42z m-936 -139 c5 -7 16 -38 25 -68 10 -30 26 -84 38 -119 28 -91
27 -101 -14 -101 -18 0 -53 -7 -76 -15 -23 -8 -61 -15 -84 -15 -22 -1 -52 -7
-66 -15 -14 -8 -36 -14 -48 -15 -17 0 -27 -9 -35 -30 -6 -16 -14 -30 -17 -30
-6 0 -29 72 -65 203 -15 54 -15 63 0 107 10 29 24 51 35 55 23 7 115 24 291
54 4 1 11 -5 16 -11z m-549 -125 c32 -10 63 -28 77 -45 23 -28 45 -85 45 -120
0 -9 5 -20 10 -23 6 -3 10 -19 10 -35 0 -26 -4 -30 -37 -35 -21 -3 -58 -10
-83 -15 -25 -5 -72 -14 -105 -19 -33 -5 -73 -14 -88 -20 -16 -6 -43 -11 -60
-11 -18 0 -54 -7 -81 -15 -27 -8 -64 -15 -81 -15 -18 0 -49 -7 -68 -15 -20 -8
-56 -15 -79 -15 -24 -1 -54 -7 -68 -15 -14 -8 -45 -15 -70 -15 -25 -1 -63 -7
-85 -15 -22 -8 -56 -15 -76 -15 -20 0 -53 -7 -72 -15 -20 -8 -51 -15 -69 -15
-17 0 -57 -6 -87 -14 -72 -18 -152 -35 -221 -46 -30 -5 -71 -13 -90 -18 -19
-6 -52 -13 -72 -17 -25 -4 -38 -11 -38 -21 0 -33 -25 -6 -26 28 -1 19 -4 40
-8 46 -9 15 12 157 28 188 17 31 42 55 76 71 14 7 32 17 40 22 31 18 87 34
145 41 33 4 73 13 88 19 16 6 45 11 66 11 21 0 58 7 81 15 23 8 63 15 89 15
25 1 57 7 71 15 14 8 46 14 72 15 26 0 59 5 75 11 26 10 122 28 263 49 30 4
75 13 100 19 186 44 249 49 328 24z m1632 -150 c6 -16 14 -37 19 -48 4 -11 14
-36 20 -55 7 -19 28 -78 47 -130 20 -52 38 -104 41 -115 3 -11 11 -34 19 -52
8 -17 14 -42 14 -56 0 -23 -7 -26 -87 -45 -49 -12 -117 -27 -152 -34 -56 -11
-67 -17 -84 -45 -10 -18 -22 -31 -27 -28 -11 7 -88 241 -96 293 -4 23 -11 45
-16 48 -8 5 -110 -13 -203 -37 -22 -6 -68 -14 -102 -19 -35 -5 -72 -14 -82
-20 -11 -5 -32 -10 -47 -10 -21 0 -125 -26 -142 -35 -3 -2 26 -100 44 -145 7
-19 16 -52 20 -73 3 -20 10 -40 15 -43 5 -3 9 -16 9 -30 0 -20 -5 -24 -32 -24
-18 -1 -44 -7 -58 -15 -14 -8 -39 -14 -56 -15 -17 0 -51 -7 -74 -15 -23 -8
-57 -15 -74 -15 -39 0 -49 -7 -69 -45 -18 -36 -14 -46 -67 150 -55 201 -70
253 -86 299 -12 34 -12 43 1 63 8 12 15 31 15 42 0 28 38 51 84 51 22 0 62 6
90 14 62 18 142 34 217 45 30 5 64 13 75 19 10 5 53 13 94 17 41 4 94 13 118
21 23 8 59 14 80 14 20 1 48 7 62 15 14 8 43 14 66 15 22 0 63 7 90 15 27 8
65 15 85 15 19 0 40 5 46 11 6 6 38 15 70 19 100 13 103 12 113 -17z m-3353
-145 c10 -12 25 -125 27 -198 l1 -34 -75 -13 c-41 -8 -97 -18 -125 -23 -27 -4
-70 -13 -95 -18 -25 -6 -83 -17 -130 -26 -180 -34 -333 -66 -339 -71 -3 -3 -4
-23 -3 -43 l3 -37 -60 -17 c-33 -10 -74 -18 -91 -18 -17 0 -47 -7 -67 -15 -19
-8 -54 -15 -77 -15 -22 0 -59 -7 -81 -14 -22 -8 -43 -11 -46 -8 -11 12 -27
265 -20 306 6 38 9 40 56 53 28 7 64 13 80 13 17 0 52 7 79 15 27 8 66 15 86
15 21 0 54 7 73 15 20 8 56 15 80 15 25 0 61 7 80 15 20 8 56 15 79 15 24 1
61 7 83 15 22 8 60 15 85 15 25 0 56 7 70 15 14 8 45 14 70 15 25 0 61 5 80
11 31 10 105 24 151 28 9 0 21 -5 26 -11z m-1304 -242 c10 -25 29 -241 25
-291 l-3 -50 -55 -6 c-31 -3 -65 -11 -77 -17 -12 -7 -36 -12 -53 -12 -18 0
-64 -7 -104 -15 -39 -9 -102 -23 -141 -31 -38 -9 -101 -19 -140 -24 -38 -5
-88 -13 -110 -19 -55 -14 -150 -32 -210 -40 -27 -4 -60 -12 -72 -19 -12 -7
-40 -12 -62 -12 -22 0 -52 -5 -68 -11 -15 -6 -53 -15 -83 -19 -30 -4 -76 -13
-102 -21 -26 -7 -49 -11 -51 -8 -3 2 -6 85 -8 183 l-4 180 65 14 c36 7 90 17
120 21 30 4 68 13 83 19 16 7 46 12 67 12 22 0 59 6 82 14 24 8 69 17 101 20
32 3 77 11 100 16 53 12 163 33 342 65 165 30 292 53 320 59 11 2 23 4 26 5 4
0 9 -5 12 -13z m1966 -163 c6 -21 11 -47 11 -58 0 -41 39 -178 56 -196 21 -23
83 -25 163 -5 149 37 192 46 223 46 19 0 43 7 54 15 10 8 35 15 55 15 20 0 56
7 79 15 23 8 59 15 79 15 21 0 46 7 57 15 10 8 42 15 69 15 28 0 61 7 75 15
14 8 43 15 65 15 22 0 51 7 65 15 14 8 42 14 63 15 21 0 53 6 71 14 19 8 59
16 91 17 l57 4 19 -60 c59 -195 62 -179 -35 -190 -34 -4 -81 -14 -106 -21 -25
-8 -58 -14 -75 -14 -16 0 -39 -7 -49 -15 -11 -8 -37 -15 -58 -15 -21 0 -55 -7
-75 -15 -19 -8 -51 -15 -70 -15 -19 0 -44 -5 -55 -11 -11 -6 -44 -15 -72 -19
-28 -4 -64 -12 -81 -18 -16 -6 -55 -16 -85 -22 -30 -6 -73 -14 -95 -19 -22 -4
-58 -13 -80 -19 -22 -6 -71 -18 -110 -26 -38 -8 -133 -29 -209 -47 -118 -27
-152 -31 -214 -25 -77 6 -147 31 -171 59 -18 23 -27 21 -36 -5 -5 -18 -10 -9
-21 42 -8 36 -16 76 -18 90 -2 14 -12 70 -21 126 -12 70 -16 120 -11 166 l7
66 60 7 c32 4 62 11 65 16 3 5 23 9 45 9 22 0 49 4 59 10 16 8 92 24 137 29 7
0 17 -16 22 -36z m-869 -187 c0 -17 7 -63 15 -101 22 -106 21 -115 -17 -115
-18 -1 -51 -7 -73 -15 -22 -8 -55 -15 -73 -15 -18 0 -42 -5 -53 -10 -18 -10
-123 -33 -219 -48 -45 -7 -45 -7 -48 -51 l-3 -44 53 7 c29 4 80 13 113 21 33
8 116 26 185 40 69 15 152 32 185 40 56 12 174 37 257 55 27 5 38 4 42 -6 8
-21 30 -176 30 -219 l1 -40 -50 -7 c-49 -6 -90 -16 -189 -44 -26 -8 -62 -14
-80 -14 -17 -1 -42 -7 -56 -15 -14 -8 -42 -14 -63 -15 -21 0 -54 -7 -74 -15
-19 -8 -48 -15 -64 -15 -16 0 -46 -6 -66 -14 -37 -13 -105 -29 -193 -45 -25
-5 -67 -14 -95 -21 -208 -51 -295 -70 -322 -70 -18 0 -22 7 -26 48 -2 26 -9
90 -15 142 -6 52 -13 136 -16 185 -3 50 -8 120 -12 157 -9 97 -2 118 41 118
19 0 54 6 77 14 24 8 74 17 112 21 38 4 90 13 115 21 25 8 63 14 83 14 20 0
39 4 43 9 3 6 27 13 53 16 26 3 72 12 103 20 30 8 70 15 88 15 18 0 42 5 54
12 24 12 125 26 145 20 6 -2 12 -18 12 -36z m-1530 -278 c5 -13 14 -148 20
-301 6 -152 13 -290 16 -305 5 -23 1 -30 -21 -40 -14 -7 -35 -12 -46 -12 -11
0 -41 -6 -67 -14 -26 -8 -85 -22 -132 -31 -47 -10 -107 -24 -133 -31 -50 -14
-73 -11 -74 9 0 7 -4 157 -8 334 l-8 322 24 5 c13 3 60 12 104 21 116 22 226
45 260 55 48 13 55 11 65 -12z m6790 -708 c0 -5 -7 -10 -16 -10 -8 0 -12 5 -9
10 3 6 10 10 16 10 5 0 9 -4 9 -10z m-680 -200 c0 -5 -12 -10 -27 -9 l-28 1
25 8 c14 4 26 8 28 9 1 1 2 -3 2 -9z m1417 -232 c-3 -8 -6 -5 -6 6 -1 11 2 17
5 13 3 -3 4 -12 1 -19z"/>
<path d="M9558 5653 c7 -3 16 -2 19 1 4 3 -2 6 -13 5 -11 0 -14 -3 -6 -6z"/>
<path d="M10365 5650 c3 -5 8 -10 11 -10 2 0 4 5 4 10 0 6 -5 10 -11 10 -5 0
-7 -4 -4 -10z"/>
<path d="M10392 5590 c0 -19 2 -27 5 -17 2 9 2 25 0 35 -3 9 -5 1 -5 -18z"/>
<path d="M10068 5553 c7 -3 16 -2 19 1 4 3 -2 6 -13 5 -11 0 -14 -3 -6 -6z"/>
<path d="M10530 5504 c0 -8 5 -12 10 -9 6 3 10 10 10 16 0 5 -4 9 -10 9 -5 0
-10 -7 -10 -16z"/>
<path d="M10590 5509 c0 -5 5 -7 10 -4 6 3 10 8 10 11 0 2 -4 4 -10 4 -5 0
-10 -5 -10 -11z"/>
<path d="M10392 5450 c0 -14 2 -19 5 -12 2 6 2 18 0 25 -3 6 -5 1 -5 -13z"/>
<path d="M10450 5385 c-11 -13 -8 -15 14 -15 16 0 26 5 26 15 0 8 -6 15 -14
15 -7 0 -19 -7 -26 -15z"/>
<path d="M8378 5303 c7 -3 16 -2 19 1 4 3 -2 6 -13 5 -11 0 -14 -3 -6 -6z"/>
<path d="M7020 4640 c0 -5 5 -10 11 -10 5 0 7 5 4 10 -3 6 -8 10 -11 10 -2 0
-4 -4 -4 -10z"/>
<path d="M7000 4600 c0 -5 7 -7 15 -4 8 4 15 8 15 10 0 2 -7 4 -15 4 -8 0 -15
-4 -15 -10z"/>
<path d="M6300 4400 c0 -5 9 -10 20 -10 11 0 20 5 20 10 0 6 -9 10 -20 10 -11
0 -20 -4 -20 -10z"/>
<path d="M6241 4374 c0 -11 3 -14 6 -6 3 7 2 16 -1 19 -3 4 -6 -2 -5 -13z"/>
<path d="M5775 4166 c-11 -8 -25 -12 -32 -9 -7 3 -13 -2 -13 -11 0 -9 -4 -16
-10 -16 -5 0 -10 9 -10 20 0 13 -7 20 -20 20 -25 0 -27 -30 -2 -31 22 0 -97
-39 -122 -39 -10 0 -39 -7 -65 -15 -25 -8 -67 -20 -93 -26 -35 -8 -48 -16 -48
-30 0 -16 -8 -17 -77 -14 -43 2 -68 2 -55 -1 35 -8 21 -28 -24 -35 -77 -12
-199 -43 -202 -51 -8 -19 -43 -6 -55 20 -6 15 -14 29 -18 32 -3 3 -8 13 -12
23 -12 32 -26 19 -16 -15 5 -18 9 -116 9 -218 0 -102 4 -191 9 -198 6 -11 20
-11 68 -3 78 15 94 9 86 -32 -3 -18 -9 -36 -13 -42 -16 -21 -50 -136 -50 -169
0 -43 27 -61 78 -52 41 6 71 36 97 98 9 24 44 98 76 165 53 109 62 122 89 128
17 4 43 13 58 21 15 8 33 14 40 14 7 0 20 4 30 9 9 5 24 12 33 14 15 5 129
148 129 162 0 8 53 79 63 83 4 2 7 10 7 17 0 8 14 29 30 47 17 18 30 38 30 46
0 7 7 15 15 18 8 4 15 14 15 24 0 10 7 23 15 30 34 28 -3 43 -40 16z"/>
<path d="M5576 4141 c-17 -6 -17 -8 -3 -14 8 -3 21 1 27 9 13 15 6 17 -24 5z"/>
<path d="M5458 4133 c7 -3 16 -2 19 1 4 3 -2 6 -13 5 -11 0 -14 -3 -6 -6z"/>
<path d="M5001 3964 c0 -11 3 -14 6 -6 3 7 2 16 -1 19 -3 4 -6 -2 -5 -13z"/>
<path d="M4410 3805 c0 -8 7 -15 15 -15 8 0 15 7 15 15 0 8 -7 15 -15 15 -8 0
-15 -7 -15 -15z"/>
<path d="M4491 3806 c-11 -13 -11 -17 3 -22 28 -11 17 -24 -15 -17 -21 4 -34
1 -41 -8 -7 -11 -11 -11 -15 -1 -7 18 -33 15 -51 -7 -20 -23 -144 -69 -216
-80 -28 -4 -52 -13 -54 -19 -2 -7 -15 -12 -28 -12 -31 0 -216 -69 -226 -84 -6
-8 -8 -7 -8 2 0 6 -11 12 -25 12 -14 0 -25 -4 -25 -9 0 -8 -54 -41 -67 -41 -1
0 -3 7 -3 15 0 21 -24 19 -45 -5 -10 -11 -29 -20 -42 -20 -12 0 -23 -4 -23 -9
0 -12 -29 -41 -40 -41 -5 0 -11 8 -14 18 -2 9 -3 -3 -1 -28 3 -25 7 -99 10
-165 6 -116 18 -175 36 -175 5 0 17 4 27 9 39 19 121 41 135 35 20 -7 28 -62
10 -68 -7 -3 -13 -19 -13 -35 0 -16 -5 -33 -11 -36 -34 -21 -42 -137 -11 -167
17 -17 23 -18 68 -7 62 15 81 32 95 83 6 23 14 46 18 51 4 6 25 61 47 124 32
94 43 115 64 122 14 5 34 13 45 18 50 22 122 49 147 55 27 6 70 54 104 116 10
19 21 37 24 40 3 3 14 23 25 45 11 22 23 42 28 43 4 2 7 9 7 16 0 6 15 34 33
61 17 28 44 73 59 100 23 44 25 54 14 79 -10 26 -13 27 -25 12z m-8 -61 c-6
-17 -25 -15 -31 3 -2 7 5 12 17 12 14 0 19 -5 14 -15z"/>
<path d="M3673 3603 c9 -2 25 -2 35 0 9 3 1 5 -18 5 -19 0 -27 -2 -17 -5z"/>
<path d="M3570 3495 c0 -8 5 -15 10 -15 6 0 10 7 10 15 0 8 -4 15 -10 15 -5 0
-10 -7 -10 -15z"/>
<path d="M3061 3344 c0 -11 3 -14 6 -6 3 7 2 16 -1 19 -3 4 -6 -2 -5 -13z"/>
<path d="M3000 3330 c-8 -5 -39 -10 -69 -10 -30 0 -51 -3 -47 -7 4 -4 22 -6
41 -5 46 4 54 -15 10 -24 -19 -3 -35 -10 -35 -14 0 -4 -27 -15 -60 -25 -33
-10 -60 -21 -60 -25 0 -4 -41 -10 -91 -13 -60 -5 -95 -12 -105 -22 -9 -8 -23
-15 -32 -15 -9 -1 -55 -14 -102 -31 -47 -17 -95 -33 -108 -36 -12 -3 -24 -15
-27 -27 -7 -30 -27 -217 -26 -243 0 -13 -4 -23 -9 -23 -6 0 -10 -26 -10 -58 0
-32 -5 -63 -11 -69 -6 -6 -12 -30 -15 -54 -2 -24 -8 -66 -14 -94 -37 -183 -35
-195 30 -195 30 0 54 6 64 15 8 8 19 15 24 15 10 0 35 86 58 205 9 44 20 98
25 120 4 22 8 43 9 46 0 9 70 37 110 45 19 3 44 11 55 17 11 7 27 13 35 14 20
3 54 11 58 13 1 2 5 3 10 4 63 15 132 47 132 63 0 7 4 13 8 13 4 0 14 16 21
35 7 19 17 35 22 35 5 0 9 4 9 9 0 8 61 115 77 136 10 13 79 154 87 178 7 22
-2 22 -26 0 -19 -17 -19 -16 -13 10 7 28 0 33 -25 17z"/>
<path d="M2765 3310 c4 -6 11 -8 16 -5 14 9 11 15 -7 15 -8 0 -12 -5 -9 -10z"/>
<path d="M2470 3220 c0 -5 5 -10 10 -10 6 0 10 5 10 10 0 6 -4 10 -10 10 -5 0
-10 -4 -10 -10z"/>
</g>
</svg>
